# xmcd
#
# Track frame offsets: 
#        150
#        15950
#        27688
#        50826
#        66110
#        82013
#        97868
#
# Disc length: 1510 seconds
#
# Revision: 0
# Processed by: cddbd v1.5.2PL0 Copyright (c) Steve Scherf et al.
# Submitted via: ExactAudioCopy v0.99pb5
#
DISCID=5305e407
DTITLE=Sarah Jaffe - Even Born Again
DYEAR=2008
DGENRE=Folklore
TTITLE0=Even Born Again
TTITLE1=Black Hoax Lie
TTITLE2=Adeline
TTITLE3=Under
TTITLE4=Two Intangibles Can't Be Had
TTITLE5=Backwards/Forwards
TTITLE6=Two Intangibles/Working For A Nuclear Free City Remix
EXTD=
EXTT0=
EXTT1=
EXTT2=
EXTT3=
EXTT4=
EXTT5=
EXTT6=
PLAYORDER=
